<svg id="icon-upto-date-listing" xmlns="http://www.w3.org/2000/svg" width="87.2" height="109" viewBox="0 0 87.2 109">
  <g id="Group_33" data-name="Group 33" transform="translate(0 6.765)">
    <g id="Group_9" data-name="Group 9">
      <g id="Group_8" data-name="Group 8">
        <path id="Path_19" data-name="Path 19" d="M85.75,3H64.1V6.651H85.75a1.824,1.824,0,0,1,1.817,1.826V99.759a1.824,1.824,0,0,1-1.817,1.826H9.45a1.824,1.824,0,0,1-1.817-1.826V8.477A1.824,1.824,0,0,1,9.45,6.651h21.8V3H9.45A5.47,5.47,0,0,0,4,8.477V99.759a5.47,5.47,0,0,0,5.45,5.477h76.3a5.47,5.47,0,0,0,5.45-5.477V8.477A5.47,5.47,0,0,0,85.75,3Z" transform="translate(-4 -3)" fill="#0095d9"/>
      </g>
    </g>
    <g id="Group_10" data-name="Group 10" transform="translate(66.907 6.765)">
      <path id="Path_20" data-name="Path 20" d="M33.838,62.5a1.692,1.692,0,0,1-1.691-1.691V8.382H23.691a1.691,1.691,0,0,1,0-3.382H33.838a1.692,1.692,0,0,1,1.691,1.691V60.807A1.692,1.692,0,0,1,33.838,62.5Z" transform="translate(-22 -5)" fill="#0095d9"/>
    </g>
    <g id="Group_11" data-name="Group 11" transform="translate(6.765 6.765)">
      <path id="Path_21" data-name="Path 21" d="M55.043,93.706H7.691A1.775,1.775,0,0,1,6,91.858V6.848A1.775,1.775,0,0,1,7.691,5H17.838a1.775,1.775,0,0,1,1.691,1.848A1.775,1.775,0,0,1,17.838,8.7H9.382V90.01h45.66a1.855,1.855,0,0,1,0,3.7Z" transform="translate(-6 -5)" fill="#0095d9"/>
    </g>
    <g id="Group_12" data-name="Group 12" transform="translate(60.142 75.177)">
      <path id="Path_22" data-name="Path 22" d="M21.691,43.294a1.732,1.732,0,0,1-.646-.129A1.691,1.691,0,0,1,20,41.6V24.691A1.692,1.692,0,0,1,21.691,23H38.6a1.693,1.693,0,0,1,1.2,2.888L22.888,42.8A1.7,1.7,0,0,1,21.691,43.294Zm1.691-16.911V37.52L34.52,26.382Z" transform="translate(-20 -23)" fill="#0095d9"/>
    </g>
    <g id="customer_survey_questionnaire_2_" transform="translate(16.207 26.89)">
      <g id="Group_14" data-name="Group 14" transform="translate(0.001 16.911)">
        <g id="Group_13" data-name="Group 13">
          <path id="Path_23" data-name="Path 23" d="M13.59,25.4h-.037a1.68,1.68,0,0,1-1.245-.589l-3.9-4.553a1.69,1.69,0,1,1,2.567-2.2l2.675,3.118,5.378-5.726a1.693,1.693,0,0,1,2.466,2.32l-6.67,7.1A1.714,1.714,0,0,1,13.59,25.4Z" transform="translate(-8 -14.918)" fill="#0095d9"/>
        </g>
      </g>
      <g id="Group_16" data-name="Group 16" transform="translate(0.001)">
        <g id="Group_15" data-name="Group 15">
          <path id="Path_24" data-name="Path 24" d="M13.59,20.4h-.037a1.68,1.68,0,0,1-1.245-.589l-3.9-4.553a1.69,1.69,0,1,1,2.567-2.2l2.675,3.118,5.378-5.726a1.693,1.693,0,0,1,2.466,2.32l-6.67,7.1A1.714,1.714,0,0,1,13.59,20.4Z" transform="translate(-8 -9.918)" fill="#0095d9"/>
        </g>
      </g>
      <g id="Group_18" data-name="Group 18" transform="translate(16.911 40.866)">
        <g id="Group_17" data-name="Group 17">
          <path id="Path_25" data-name="Path 25" d="M28.22,25.382H14.691a1.691,1.691,0,0,1,0-3.382H28.22a1.691,1.691,0,1,1,0,3.382Z" transform="translate(-13 -22)" fill="#0095d9"/>
        </g>
      </g>
      <g id="Group_20" data-name="Group 20" transform="translate(16.911 34.101)">
        <g id="Group_19" data-name="Group 19">
          <path id="Path_26" data-name="Path 26" d="M45.131,23.382H14.691a1.691,1.691,0,0,1,0-3.382h30.44a1.691,1.691,0,1,1,0,3.382Z" transform="translate(-13 -20)" fill="#0095d9"/>
        </g>
      </g>
      <g id="Group_22" data-name="Group 22" transform="translate(37.205 17.19)">
        <g id="Group_21" data-name="Group 21">
          <path id="Path_27" data-name="Path 27" d="M30.838,18.382H20.691a1.691,1.691,0,0,1,0-3.382H30.838a1.691,1.691,0,0,1,0,3.382Z" transform="translate(-19 -15)" fill="#0095d9"/>
        </g>
      </g>
      <g id="Group_24" data-name="Group 24" transform="translate(16.911 23.954)">
        <g id="Group_23" data-name="Group 23">
          <path id="Path_28" data-name="Path 28" d="M38.367,20.382H14.691a1.691,1.691,0,0,1,0-3.382H38.367a1.691,1.691,0,0,1,0,3.382Z" transform="translate(-13 -17)" fill="#0095d9"/>
        </g>
      </g>
      <g id="Group_26" data-name="Group 26" transform="translate(16.911 17.19)">
        <g id="Group_25" data-name="Group 25">
          <path id="Path_29" data-name="Path 29" d="M28.22,18.382H14.691a1.691,1.691,0,0,1,0-3.382H28.22a1.691,1.691,0,1,1,0,3.382Z" transform="translate(-13 -15)" fill="#0095d9"/>
        </g>
      </g>
      <g id="Group_28" data-name="Group 28" transform="translate(16.911 0.279)">
        <g id="Group_27" data-name="Group 27">
          <path id="Path_30" data-name="Path 30" d="M45.131,13.382H14.691a1.691,1.691,0,0,1,0-3.382h30.44a1.691,1.691,0,1,1,0,3.382Z" transform="translate(-13 -10)" fill="#0095d9"/>
        </g>
      </g>
      <g id="Group_30" data-name="Group 30" transform="translate(16.911 7.043)">
        <g id="Group_29" data-name="Group 29">
          <path id="Path_31" data-name="Path 31" d="M31.6,15.382H14.691a1.691,1.691,0,0,1,0-3.382H31.6a1.691,1.691,0,1,1,0,3.382Z" transform="translate(-13 -12)" fill="#0095d9"/>
        </g>
      </g>
      <g id="Group_32" data-name="Group 32" transform="translate(0 34.101)">
        <g id="Group_31" data-name="Group 31">
          <path id="Path_32" data-name="Path 32" d="M16.456,30.147H9.691A1.692,1.692,0,0,1,8,28.456V21.691A1.692,1.692,0,0,1,9.691,20h6.765a1.692,1.692,0,0,1,1.691,1.691v6.765A1.692,1.692,0,0,1,16.456,30.147Zm-5.073-3.382h3.382V23.382H11.382Z" transform="translate(-8 -20)" fill="#0095d9"/>
        </g>
      </g>
    </g>
  </g>
  <g id="Group_34" data-name="Group 34" transform="translate(26.689 3.382)">
    <path id="Path_33" data-name="Path 33" d="M43.131,18.911H12.691A1.692,1.692,0,0,1,11,17.22V7.073A5.08,5.08,0,0,1,16.073,2a1.691,1.691,0,1,1,0,3.382,1.694,1.694,0,0,0-1.691,1.691v8.456H41.44V7.073a1.694,1.694,0,0,0-1.691-1.691,1.691,1.691,0,0,1,0-3.382,5.08,5.08,0,0,1,5.073,5.073V17.22A1.692,1.692,0,0,1,43.131,18.911Z" transform="translate(-11 -2)" fill="#0095d9"/>
  </g>
  <g id="Group_35" data-name="Group 35" transform="translate(36.836)">
    <path id="Path_34" data-name="Path 34" d="M25.838,7.765a1.692,1.692,0,0,1-1.691-1.691,1.694,1.694,0,0,0-1.691-1.691H19.073a1.652,1.652,0,0,0-1,.328,1.67,1.67,0,0,0-.69,1.363,1.691,1.691,0,1,1-3.382,0,5.091,5.091,0,0,1,2.06-4.082A5.037,5.037,0,0,1,19.073,1h3.382a5.08,5.08,0,0,1,5.073,5.073A1.692,1.692,0,0,1,25.838,7.765Z" transform="translate(-14 -1)" fill="#0095d9"/>
  </g>
</svg>
