<svg xmlns="http://www.w3.org/2000/svg" width="60.01" height="60" viewBox="0 0 60.01 60">
  <g id="icon-mentor" transform="translate(-1.997 -2)">
    <path id="Path_14" data-name="Path 14" d="M36,41a4.5,4.5,0,1,0-4.5-4.5A4.5,4.5,0,0,0,36,41Zm0-7a2.5,2.5,0,1,1-2.5,2.5A2.5,2.5,0,0,1,36,34Z" fill="#fff"/>
    <path id="Path_15" data-name="Path 15" d="M22,42A14,14,0,1,0,36,28,14,14,0,0,0,22,42Zm7.5,10.07A6.76,6.76,0,0,1,36,45a6.76,6.76,0,0,1,6.5,7.07,11.91,11.91,0,0,1-13,0ZM36,30a12,12,0,0,1,8.39,20.57A8.66,8.66,0,0,0,36,43a8.66,8.66,0,0,0-8.38,7.57A12,12,0,0,1,36,30Z" fill="#fff"/>
    <path id="Path_16" data-name="Path 16" d="M59,14H57V9a1,1,0,0,0-1-1H50V3a1,1,0,0,0-1-1H7A1,1,0,0,0,6,3V14H5.68A3.85,3.85,0,0,0,2,18V57.92A3.93,3.93,0,0,0,5.74,62H58.41A3.86,3.86,0,0,0,62,57.92V17a3,3,0,0,0-3-3Zm0,2a1,1,0,0,1,1,1v5H57V16Zm-4,6H34.36a.83.83,0,0,1-.57-.23l-7.42-7A2.83,2.83,0,0,0,24.43,14H15V10H55ZM4,57.92V18a1.86,1.86,0,0,1,1.68-2H6V57a1,1,0,0,0,1,1h3a4.42,4.42,0,0,0,.51,2H5.74A1.93,1.93,0,0,1,4,57.92Zm56,0A1.91,1.91,0,0,1,58.41,60H13.59A1.91,1.91,0,0,1,12,57.92V41a1,1,0,0,0-2,0V56H8V4H48V8H14a1,1,0,0,0-1,1v5.06A3.87,3.87,0,0,0,10,18V33a1,1,0,0,0,2,0V18a1.84,1.84,0,0,1,1.53-2h10.9a.83.83,0,0,1,.57.23l7.42,7a2.83,2.83,0,0,0,1.94.78H60Z" fill="#fff"/>
    <path id="Path_17" data-name="Path 17" d="M32,15H52a1,1,0,0,0,0-2H32a1,1,0,0,0,0,2Z" fill="#fff"/>
    <path id="Path_18" data-name="Path 18" d="M52,17H37a1,1,0,0,0,0,2H52a1,1,0,0,0,0-2Z" fill="#fff"/>
    <circle id="Ellipse_4" data-name="Ellipse 4" cx="1" cy="1" r="1" transform="translate(10 36)" fill="#fff"/>
  </g>
</svg>
