<svg xmlns="http://www.w3.org/2000/svg" width="23.97" height="24" viewBox="0 0 23.97 24">
  <path id="search" d="M24.5,30.75a6.189,6.189,0,0,0,6.25-6.25,6.189,6.189,0,0,0-6.25-6.25,6.189,6.189,0,0,0-6.25,6.25,6.189,6.189,0,0,0,6.25,6.25Zm0,3.75a10.029,10.029,0,0,1-10-10,10.029,10.029,0,0,1,10-10,10.029,10.029,0,0,1,10,10,8.757,8.757,0,0,1-.469,2.781,12.614,12.614,0,0,1-1.344,2.781l5.25,5.25a1.692,1.692,0,0,1,.531,1.313,1.918,1.918,0,0,1-.594,1.313,1.812,1.812,0,0,1-2.625,0L30.063,32.75a11.606,11.606,0,0,1-2.781,1.313A9.325,9.325,0,0,1,24.5,34.5Z" transform="translate(-14.5 -14.5)" fill="#17b077"/>
</svg>
