<svg xmlns="http://www.w3.org/2000/svg" width="31" height="22.8" viewBox="0 0 31 22.8">
  <path id="arrow-right" d="M26.728,34.85a1.478,1.478,0,0,1-.444-1.075,1.4,1.4,0,0,1,.394-1.025l7.245-7.35H9.479a1.425,1.425,0,0,1-1.06-.425,1.589,1.589,0,0,1,0-2.15,1.425,1.425,0,0,1,1.06-.425H33.924L26.63,15a1.364,1.364,0,0,1-.419-1.05,1.545,1.545,0,0,1,.468-1.05,1.528,1.528,0,0,1,1.06-.4,1.358,1.358,0,0,1,1.01.4l9.808,9.95a1.524,1.524,0,0,1,.345.5,1.584,1.584,0,0,1,0,1.1,1.524,1.524,0,0,1-.345.5L28.8,34.85a1.415,1.415,0,0,1-2.07,0Z" transform="translate(-8 -12.5)" fill="#17b077"/>
</svg>
