<svg xmlns="http://www.w3.org/2000/svg" width="39" height="43.875" viewBox="0 0 39 43.875">
  <path id="notification" d="M9.828,44.562a1.828,1.828,0,1,1,0-3.656h3.291V27.134a14.79,14.79,0,0,1,3.016-9.049A12.911,12.911,0,0,1,24.088,13V11.23a2.994,2.994,0,0,1,1.005-2.316,3.626,3.626,0,0,1,4.814,0,2.994,2.994,0,0,1,1.005,2.316V13A13.035,13.035,0,0,1,38.9,18.085a14.693,14.693,0,0,1,3.047,9.049V40.906h3.23a1.828,1.828,0,1,1,0,3.656ZM27.5,32.68m0-4.875,0,24.07a4.726,4.726,0,0,1-3.412-1.432A4.646,4.646,0,0,1,22.625,47h9.75A4.889,4.889,0,0,1,27.5,51.875ZM16.775,40.906H38.286V27.134a10.587,10.587,0,0,0-3.077-7.709,10.207,10.207,0,0,0-7.587-3.138A10.717,10.717,0,0,0,16.775,27.134Z" transform="translate(-8 -8)" fill="#17b077"/>
</svg>
