<svg xmlns="http://www.w3.org/2000/svg" width="20.65" height="23.7" viewBox="0 0 20.65 23.7">
  <path id="review" d="M18,34.7H29.5a2.159,2.159,0,0,0,1.175-.3,2.557,2.557,0,0,0,.825-.9l3.9-9.1a3.578,3.578,0,0,0,.175-.75,5.551,5.551,0,0,0,.075-.75V21.7a1.168,1.168,0,0,0-1.35-1.35H23.6l1.45-6.9a1.43,1.43,0,0,0,0-.75,1.363,1.363,0,0,0-.35-.6L23.65,11,15.6,19.7l-.4.8a1.875,1.875,0,0,0-.2.85V31.7a2.906,2.906,0,0,0,.9,2.075A2.841,2.841,0,0,0,18,34.7ZM24,24Z" transform="translate(-15 -11)" fill="#9babb2"/>
</svg>
