<svg xmlns="http://www.w3.org/2000/svg" width="24" height="22.931" viewBox="0 0 24 22.931">
  <path id="rating" d="M18.193,27.354l-6.267,3.774a.958.958,0,0,1-.573.152,1,1,0,0,1-.539-.185,1.04,1.04,0,0,1-.354-.438,1,1,0,0,1-.051-.607l1.651-7.143L6.535,18.088a.9.9,0,0,1-.32-.522,1.321,1.321,0,0,1,.017-.556.823.823,0,0,1,.3-.455,1.079,1.079,0,0,1,.573-.219l7.312-.64,2.83-6.739a.944.944,0,0,1,.4-.455,1.034,1.034,0,0,1,1.078,0,.944.944,0,0,1,.4.455l2.83,6.739,7.312.64a1.079,1.079,0,0,1,.573.219.823.823,0,0,1,.3.455,1.321,1.321,0,0,1,.017.556.9.9,0,0,1-.32.522l-5.526,4.818,1.651,7.143a1,1,0,0,1-.051.607,1.04,1.04,0,0,1-.354.438,1,1,0,0,1-.539.185.958.958,0,0,1-.573-.152ZM18.193,20.413Z" transform="translate(-6.193 -8.35)" fill="#eba234"/>
</svg>
