<svg xmlns="http://www.w3.org/2000/svg" width="220" height="219" viewBox="0 0 220 219">
  <g id="Group_60" data-name="Group 60" transform="translate(-212 -582)">
    <ellipse id="Ellipse_8" data-name="Ellipse 8" cx="110" cy="109.5" rx="110" ry="109.5" transform="translate(212 582)" fill="#9babb2"/>
    <path id="Union_4" data-name="Union 4" d="M66.436,164.9c-.6,0-1.2-.006-1.793-.015l-.226,0-.225,0c-.592.009-1.2.015-1.794.015h-.006A103.741,103.741,0,0,1,36.6,161.637a106.016,106.016,0,0,1-19.664-7.18A85.876,85.876,0,0,1,0,144.015a143.68,143.68,0,0,1,3.518-19.744,121.727,121.727,0,0,1,5.834-17.809,71.146,71.146,0,0,1,9.829-16.991C23.671,83.9,30,79.962,38.514,77.428c8.071-2.4,17.111-3.291,25.679-3.894l.225-.015.226.015c8.57.6,17.609,1.493,25.679,3.894,8.52,2.534,14.842,6.473,19.332,12.043a71.133,71.133,0,0,1,9.831,16.991,121.437,121.437,0,0,1,5.833,17.809,142.746,142.746,0,0,1,3.516,19.744A85.792,85.792,0,0,1,111.9,154.458a106.1,106.1,0,0,1-19.665,7.18A103.749,103.749,0,0,1,66.443,164.9ZM32.419,31.5A31.5,31.5,0,1,1,63.919,63,31.5,31.5,0,0,1,32.419,31.5Z" transform="translate(258.58 627)" fill="#fff"/>
  </g>
</svg>
