<svg xmlns="http://www.w3.org/2000/svg" width="31" height="22.801" viewBox="0 0 31 22.801">
  <path id="arrow-right" d="M20.272,34.851a1.478,1.478,0,0,0,.444-1.075,1.4,1.4,0,0,0-.394-1.025L13.076,25.4H37.521a1.425,1.425,0,0,0,1.06-.425,1.589,1.589,0,0,0,0-2.15,1.425,1.425,0,0,0-1.06-.425H13.076L20.37,15a1.364,1.364,0,0,0,.419-1.05,1.545,1.545,0,0,0-.468-1.05,1.528,1.528,0,0,0-1.06-.4,1.357,1.357,0,0,0-1.01.4L8.444,22.85a1.524,1.524,0,0,0-.345.5,1.584,1.584,0,0,0,0,1.1,1.524,1.524,0,0,0,.345.5l9.758,9.9a1.415,1.415,0,0,0,2.07,0Z" transform="translate(-8 -12.5)" fill="#17b077"/>
</svg>
