<svg id="icon-mentor" xmlns="http://www.w3.org/2000/svg" width="109.071" height="109.071" viewBox="0 0 109.071 109.071">
  <g id="Group_43" data-name="Group 43">
    <g id="Group_36" data-name="Group 36" transform="translate(36.357)">
      <path id="Path_45" data-name="Path 45" d="M52.357,63.625a2.244,2.244,0,0,1-.87-.173,2.27,2.27,0,0,1-1.4-2.1V45.446H43.268a2.272,2.272,0,0,1,0-4.545h9.089a2.27,2.27,0,0,1,2.272,2.272V55.867l14.3-14.3a2.262,2.262,0,0,1,1.607-.666H84.17V4.545H20.545V20.451a2.272,2.272,0,1,1-4.545,0V2.272A2.27,2.27,0,0,1,18.272,0h68.17a2.27,2.27,0,0,1,2.272,2.272v40.9a2.27,2.27,0,0,1-2.272,2.272H71.476L53.964,62.959A2.273,2.273,0,0,1,52.357,63.625Z" transform="translate(-16)" fill="#0095d9"/>
    </g>
    <g id="Group_37" data-name="Group 37" transform="translate(0 73.1)">
      <path id="Path_46" data-name="Path 46" d="M72.714,68.141H0V59.1A13.06,13.06,0,0,1,8.655,46.826l16.461-5.881V32.788h4.545V44.15L10.18,51.105a8.511,8.511,0,0,0-5.635,8V63.6H68.17V59.1a8.514,8.514,0,0,0-5.633-8L43.056,44.147V32.17H47.6v8.776l16.465,5.881A13.062,13.062,0,0,1,72.714,59.1Z" transform="translate(0 -32.17)" fill="#0095d9"/>
    </g>
    <g id="Group_38" data-name="Group 38" transform="translate(15.697 30.974)">
      <path id="Path_47" data-name="Path 47" d="M27.12,61.232c-11.143,0-20.212-10.678-20.212-23.8s9.067-23.8,20.212-23.8,20.212,10.675,20.212,23.8S38.264,61.232,27.12,61.232Zm0-43.054c-8.639,0-15.668,8.637-15.668,19.253S18.481,56.689,27.12,56.689,42.788,48.05,42.788,37.431,35.757,18.178,27.12,18.178Z" transform="translate(-6.908 -13.631)" fill="#0095d9"/>
    </g>
    <g id="Group_39" data-name="Group 39" transform="translate(17.145 41.318)">
      <path id="Path_48" data-name="Path 48" d="M39.426,32.43c-4.267,0-7.658-1.811-10.539-5.624a20.4,20.4,0,0,1-13.341,5.31,16.617,16.617,0,0,1-8-1.931l2.109-4.024a12.069,12.069,0,0,0,5.892,1.411c4.458,0,9.937-2.718,11.5-5.7l1.925-3.686,2.063,3.611c2.979,5.217,5.967,6.785,11,5.822a7.279,7.279,0,0,1,1.407-.1A3.706,3.706,0,0,0,43.9,27.5l.55,4.508a7.729,7.729,0,0,1-1.066.048,2.178,2.178,0,0,0-.511.018A18.363,18.363,0,0,1,39.426,32.43Z" transform="translate(-7.545 -18.183)" fill="#0095d9"/>
    </g>
    <g id="Group_40" data-name="Group 40" transform="translate(81.803 22.723)">
      <path id="Path_49" data-name="Path 49" d="M38.272,10a2.272,2.272,0,1,0,2.272,2.272A2.272,2.272,0,0,0,38.272,10Z" transform="translate(-36 -10)" fill="#0095d9"/>
    </g>
    <g id="Group_41" data-name="Group 41" transform="translate(70.442 22.723)">
      <path id="Path_50" data-name="Path 50" d="M33.272,10a2.272,2.272,0,1,0,2.272,2.272A2.272,2.272,0,0,0,33.272,10Z" transform="translate(-31 -10)" fill="#0095d9"/>
    </g>
    <g id="Group_42" data-name="Group 42" transform="translate(59.08 22.723)">
      <path id="Path_51" data-name="Path 51" d="M28.272,10a2.272,2.272,0,1,0,2.272,2.272A2.272,2.272,0,0,0,28.272,10Z" transform="translate(-26 -10)" fill="#0095d9"/>
    </g>
  </g>
</svg>
