<svg xmlns="http://www.w3.org/2000/svg" width="118.352" height="106.186" viewBox="0 0 118.352 106.186">
  <g id="icon-verified-jobs" transform="translate(-13.386 -38.326)">
    <path id="Path_35" data-name="Path 35" d="M115.408,309.453a1.1,1.1,0,0,0,1.1,1.1h56.4a1.1,1.1,0,1,0,0-2.2h-56.4A1.1,1.1,0,0,0,115.408,309.453Z" transform="translate(-77.138 -204.166)" fill="#0095d9"/>
    <path id="Path_36" data-name="Path 36" d="M318.1,335.6a1.1,1.1,0,0,0,0-2.2H308.54a1.1,1.1,0,1,0,0,2.2Z" transform="translate(-222.333 -223.109)" fill="#0095d9"/>
    <path id="Path_37" data-name="Path 37" d="M159.013,334.505a1.1,1.1,0,0,0-1.1-1.1h-41.41a1.1,1.1,0,1,0,0,2.2h41.41A1.1,1.1,0,0,0,159.013,334.505Z" transform="translate(-77.138 -223.109)" fill="#0095d9"/>
    <path id="Path_38" data-name="Path 38" d="M249.815,373.513l-2.86-.012a3.1,3.1,0,0,0-2.187.906c-1.887,1.908-3.086,2.465-3.45,2.452a4.859,4.859,0,0,1,.442-1.122c.377-.773.767-1.572.318-2.341a1.55,1.55,0,0,0-1.339-.742c-1.233-.072-2.588.973-4.019,2.08-.3.231-.67.518-1.012.764.039-.122.078-.241.113-.347.437-1.333,1.169-3.565-.768-4.584-1.26-.663-3.015.01-5.524,2.116a35.913,35.913,0,0,0-2.976,2.837,1.1,1.1,0,1,0,1.616,1.486c2.305-2.5,5.1-4.626,5.875-4.489.27.183-.091,1.286-.309,1.95-.371,1.133-.756,2.3-.05,3.185.322.4,1.075.957,2.5.151a17.1,17.1,0,0,0,1.877-1.333c.378-.292.925-.716,1.429-1.057-.41.98-.742,2.367.56,3.262a2.124,2.124,0,0,0,1.232.376c1.314,0,3-1.037,5.044-3.1a.88.88,0,0,1,.617-.255l2.86.012h0a1.1,1.1,0,1,0,0-2.2Z" transform="translate(-160.954 -251.018)" fill="#0095d9"/>
    <path id="Path_39" data-name="Path 39" d="M338.171,383.719h-3.217a1.1,1.1,0,1,0,0,2.2h3.217a1.1,1.1,0,1,0,0-2.2Z" transform="translate(-242.305 -261.148)" fill="#0095d9"/>
    <path id="Path_40" data-name="Path 40" d="M157.769,217.964h20.84a1.1,1.1,0,1,0,0-2.2h-20.84a1.11,1.11,0,0,1-1.109-1.109V202.554a1.11,1.11,0,0,1,1.109-1.109h30.612a1.11,1.11,0,0,1,1.109,1.109V214.66a1.11,1.11,0,0,1-1.109,1.109H184.3a1.1,1.1,0,1,0,0,2.2h4.081a3.307,3.307,0,0,0,3.3-3.3V202.554a3.307,3.307,0,0,0-3.3-3.3H157.769a3.307,3.307,0,0,0-3.3,3.3V214.66A3.307,3.307,0,0,0,157.769,217.964Z" transform="translate(-106.669 -121.674)" fill="#0095d9"/>
    <path id="Path_41" data-name="Path 41" d="M129.7,62.029c.955-1.069,2.038-2.28,2.038-3.865s-1.083-2.8-2.038-3.865a6.329,6.329,0,0,1-1.289-1.774,6.556,6.556,0,0,1-.016-2.3c.136-1.4.29-2.986-.607-4.219s-2.471-1.588-3.852-1.89a6.484,6.484,0,0,1-2.158-.712,6.427,6.427,0,0,1-1.319-1.81c-.717-1.23-1.529-2.623-3.013-3.1-1.428-.463-2.875.167-4.152.724a6.629,6.629,0,0,1-2.241.707,6.63,6.63,0,0,1-2.241-.707c-1.276-.557-2.724-1.188-4.152-.724-1.483.482-2.3,1.875-3.012,3.1a6.422,6.422,0,0,1-1.319,1.81,6.482,6.482,0,0,1-2.157.712c-1.381.3-2.946.645-3.852,1.89s-.743,2.82-.607,4.219a6.558,6.558,0,0,1-.015,2.3A6.328,6.328,0,0,1,92.407,54.3c-.955,1.069-2.038,2.28-2.038,3.865a3.59,3.59,0,0,0,.229,1.243H16.03a2.646,2.646,0,0,0-2.644,2.644v79.817a2.646,2.646,0,0,0,2.644,2.644H117.791a2.646,2.646,0,0,0,2.644-2.644V90.537H125.8a1.941,1.941,0,0,0,1.032-3.585c-4.2-2.595-6.044-7.883-6.834-11.446.161-.258.313-.517.46-.77a6.421,6.421,0,0,1,1.319-1.81,6.483,6.483,0,0,1,2.158-.712c1.381-.3,2.946-.645,3.852-1.89s.744-2.82.608-4.219a6.56,6.56,0,0,1,.015-2.3A6.325,6.325,0,0,1,129.7,62.029ZM95.235,86.951A1.909,1.909,0,0,0,94.4,89.12a1.929,1.929,0,0,0,1.871,1.417h8.827a1.1,1.1,0,0,0,.827-.376,24.661,24.661,0,0,0,3.915-7.293V126.56a8.677,8.677,0,0,0-7.351,7.349H31.338a8.677,8.677,0,0,0-7.349-7.349v-49.2a8.677,8.677,0,0,0,7.349-7.349H94.12a3.283,3.283,0,0,0,.2.314c.906,1.245,2.471,1.588,3.852,1.89a6.483,6.483,0,0,1,2.158.712,6.424,6.424,0,0,1,1.319,1.81c.14.24.283.485.434.729C101.3,79.026,99.46,84.339,95.235,86.951Zm8.29-8.364c.121-.386.23-.764.33-1.133a3.436,3.436,0,0,0,.805.386c1.428.464,2.875-.167,4.152-.724l.409-.177a29.643,29.643,0,0,1-4.665,11.4H97.1c2.834-2.032,5.044-5.385,6.422-9.754ZM118,141.868a.2.2,0,0,1-.2.2H16.03a.206.206,0,0,1-.2-.2V62.051a.206.206,0,0,1,.2-.2H92.244l.163.183A6.328,6.328,0,0,1,93.7,63.8a6.562,6.562,0,0,1,.015,2.3c-.046.474-.093.97-.1,1.466H30.2a1.22,1.22,0,0,0-1.22,1.22A6.222,6.222,0,0,1,22.769,75a1.22,1.22,0,0,0-1.22,1.22v51.47a1.22,1.22,0,0,0,1.22,1.22,6.222,6.222,0,0,1,6.215,6.215,1.22,1.22,0,0,0,1.22,1.22h73.414a1.22,1.22,0,0,0,1.22-1.22,6.222,6.222,0,0,1,6.217-6.215,1.22,1.22,0,0,0,1.22-1.22V82.975a24.48,24.48,0,0,0,3.876,7.186,1.094,1.094,0,0,0,.827.376H118Zm6.971-53.526h-7.456a29.621,29.621,0,0,1-4.668-11.42l.452.195A8.063,8.063,0,0,0,116.4,78a3.354,3.354,0,0,0,1.044-.161,3.434,3.434,0,0,0,.774-.365c.1.363.206.733.325,1.112,1.376,4.368,3.585,7.722,6.422,9.754ZM127.881,60.4a7.831,7.831,0,0,0-1.79,2.647,8.119,8.119,0,0,0-.123,3.291,4.5,4.5,0,0,1-.152,2.548,4.512,4.512,0,0,1-2.4.943,5.906,5.906,0,0,0-5.062,3.676c-.522.894-1.061,1.819-1.659,2.013a4.483,4.483,0,0,1-2.424-.64,8.212,8.212,0,0,0-3.216-.911,8.212,8.212,0,0,0-3.216.911,4.485,4.485,0,0,1-2.424.64c-.6-.194-1.137-1.119-1.659-2.013a5.905,5.905,0,0,0-5.062-3.676,4.513,4.513,0,0,1-2.4-.943,4.5,4.5,0,0,1-.152-2.548,8.117,8.117,0,0,0-.123-3.29A7.829,7.829,0,0,0,94.226,60.4c-.7-.78-1.417-1.586-1.417-2.24s.721-1.46,1.417-2.24a7.83,7.83,0,0,0,1.791-2.647,8.12,8.12,0,0,0,.123-3.29,4.5,4.5,0,0,1,.152-2.548,4.513,4.513,0,0,1,2.4-.943,8.024,8.024,0,0,0,3.071-1.122,7.949,7.949,0,0,0,1.991-2.553c.521-.894,1.061-1.819,1.659-2.013a.966.966,0,0,1,.3-.042,6.473,6.473,0,0,1,2.124.682,8.213,8.213,0,0,0,3.216.911,8.213,8.213,0,0,0,3.216-.911,4.484,4.484,0,0,1,2.424-.64c.6.194,1.137,1.119,1.659,2.013a7.955,7.955,0,0,0,1.991,2.554,8.026,8.026,0,0,0,3.071,1.122,4.512,4.512,0,0,1,2.4.943,4.5,4.5,0,0,1,.152,2.548,8.119,8.119,0,0,0,.123,3.291,7.83,7.83,0,0,0,1.791,2.647c.7.78,1.417,1.586,1.417,2.24s-.721,1.46-1.418,2.24Z" transform="translate(0)" fill="#0095d9"/>
    <path id="Path_42" data-name="Path 42" d="M375.905,69.227a12.3,12.3,0,1,0-.222,24.6c.1,0,.195,0,.292,0a1.22,1.22,0,1,0-.058-2.439,9.86,9.86,0,1,1,8.778-5.858,1.22,1.22,0,1,0,2.23.988,12.3,12.3,0,0,0-11.019-17.289Z" transform="translate(-264.624 -23.362)" fill="#0095d9"/>
    <path id="Path_43" data-name="Path 43" d="M429.949,147.713a9.815,9.815,0,0,1-3.089,2.021,1.22,1.22,0,1,0,.928,2.256,12.24,12.24,0,0,0,3.854-2.521,1.22,1.22,0,0,0-1.693-1.756Z" transform="translate(-312.053 -82.448)" fill="#0095d9"/>
    <path id="Path_44" data-name="Path 44" d="M398.674,102.7l-.6-1.854,1.577-1.146a1.953,1.953,0,0,0-1.147-3.532h-1.949l-.6-1.854a1.953,1.953,0,0,0-3.714,0l-.6,1.854h-1.949a1.953,1.953,0,0,0-1.148,3.532l1.577,1.146-.6,1.854a1.952,1.952,0,0,0,3,2.183l1.577-1.146,1.577,1.146a1.953,1.953,0,0,0,3-2.183Zm-2.035-3.526a1.948,1.948,0,0,0-.709,2.183l.426,1.311-1.115-.81a1.948,1.948,0,0,0-2.3,0l-1.115.81.426-1.311a1.948,1.948,0,0,0-.709-2.183l-1.115-.81h1.379a1.948,1.948,0,0,0,1.857-1.349l.426-1.311.426,1.311a1.948,1.948,0,0,0,1.857,1.349h1.379Z" transform="translate(-283.039 -41.316)" fill="#0095d9"/>
  </g>
</svg>
