<svg xmlns="http://www.w3.org/2000/svg" width="30" height="24" viewBox="0 0 30 24">
  <path id="mail" d="M6.25,32a2.159,2.159,0,0,1-1.575-.675A2.159,2.159,0,0,1,4,29.75V10.25a2.159,2.159,0,0,1,.675-1.575A2.159,2.159,0,0,1,6.25,8h25.5A2.307,2.307,0,0,1,34,10.25v19.5A2.307,2.307,0,0,1,31.75,32Zm25.5-19.687L19.6,20.263q-.15.075-.281.131a.931.931,0,0,1-.637,0q-.131-.056-.281-.131L6.25,12.313V29.75h25.5ZM19,18.425,31.6,10.25H6.438ZM6.25,12.313v0Z" transform="translate(-4 -8)" fill="#9aabb1"/>
</svg>
